<svg width="100" height="100" viewBox="0 0 100 100" fill="none" xmlns="http://www.w3.org/2000/svg">
<g clip-path="url(#clip0_1382_906)">
<path d="M22.8 85V15.88H55.632C60.752 15.88 65.136 16.776 68.784 18.568C72.496 20.36 75.344 22.856 77.328 26.056C79.376 29.256 80.4 33 80.4 37.288C80.4 41.576 79.376 45.352 77.328 48.616C75.28 51.88 72.4 54.44 68.688 56.296C65.04 58.088 60.688 58.984 55.632 58.984H34.512V47.656H54.864C58.256 47.656 60.88 46.728 62.736 44.872C64.656 42.952 65.616 40.456 65.616 37.384C65.616 34.312 64.656 31.848 62.736 29.992C60.88 28.136 58.256 27.208 54.864 27.208H37.584V85H22.8Z" fill="#1F5FE0"/>
</g>
<defs>
<clipPath id="clip0_1382_906">
<rect width="100" height="100" fill="white"/>
</clipPath>
</defs>
</svg>
